<?xml version="1.0" encoding="UTF-8"?>
<svg xmlns="http://www.w3.org/2000/svg" version="1.1" xmlns:xlink="http://www.w3.org/1999/xlink" xmlns:svgjs="http://svgjs.dev/svgjs" width="1000" height="623" viewBox="0 0 1000 623" background="hsl(157, 100%, 24%)">
    <rect width="100%" height="100%" fill="hsl(157, 100%, 24%)" />
    <g transform="matrix(1,0,0,1,-0.6060606060606233,0.2522267206477409)">
        <svg viewBox="0 0 396 247" preserveAspectRatio="xMidYMid meet" height="623" width="1000" xmlns="http://www.w3.org/2000/svg" xmlns:xlink="http://www.w3.org/1999/xlink">
            <defs></defs>
            <g id="tight-bounds" transform="matrix(1,0,0,1,0.2400000000000091,-0.09999999999999432)">
                <svg viewBox="0 0 395.52 247.2" height="247.2" width="395.52">
                    <g>
                        <svg></svg>
                    </g>
                    <g>
                        <svg viewBox="0 0 395.52 247.2" height="247.2" width="395.52">
                            <g transform="matrix(1,0,0,1,75.54432000000001,112.88988855587243)">
                                <svg viewBox="0 0 244.43135999999996 21.42022288825512" height="21.42022288825512" width="244.43135999999996">
                                    <g>
                                        <svg viewBox="0 0 244.43135999999996 21.42022288825512" height="21.42022288825512" width="244.43135999999996">
                                            <g>
                                                <svg viewBox="0 0 244.43135999999996 21.42022288825512" height="21.42022288825512" width="244.43135999999996">
                                                    <g>
                                                        <svg viewBox="0 0 244.43135999999996 21.42022288825512" height="21.42022288825512" width="244.43135999999996">
                                                            <g>
                                                                <svg viewBox="0 0 244.43135999999996 21.42022288825512" height="21.42022288825512" width="244.43135999999996">
                                                                    <g>
                                                                        <svg viewBox="0 0 244.43135999999996 21.42022288825512" height="21.42022288825512" width="244.43135999999996">
                                                                            <g transform="matrix(1,0,0,1,0,0)">
                                                                                <svg width="244.43135999999996" viewBox="3.5 -33.20000076293945 385.6700134277344 33.79999923706055" height="21.42022288825512">
                                                                                    <path d="M10.85 0L3.5 0 3.5-32.6 15.05-32.6Q17.65-32.6 19.93-32.1 22.2-31.6 23.93-30.43 25.65-29.25 26.65-27.3 27.65-25.35 27.65-22.45L27.65-22.45Q27.65-18.85 26.05-16.53 24.45-14.2 21.85-13.05L21.85-13.05 29.2 0 20.95 0 14.7-11.75 10.85-11.75 10.85 0ZM10.85-26.75L10.85-17.6 14.45-17.6Q20.4-17.6 20.4-22.45L20.4-22.45Q20.4-24.85 18.9-25.8 17.4-26.75 14.45-26.75L14.45-26.75 10.85-26.75ZM56.7 0L34.6 0 34.6-32.6 56.2-32.6 56.2-26.4 42-26.4 42-19.85 54.05-19.85 54.05-13.7 42-13.7 42-6.2 56.7-6.2 56.7 0ZM72.2-16.5L72.2-16.5 71.45-13.5 78.3-13.5 77.55-16.5Q76.9-18.95 76.2-21.68 75.5-24.4 74.95-27L74.95-27 74.75-27Q74.15-24.4 73.5-21.68 72.84-18.95 72.2-16.5ZM67.95 0L60.45 0 70.59-32.6 79.4-32.6 89.55 0 81.75 0 79.8-7.75 69.95-7.75 67.95 0ZM107.79 0.6L107.79 0.6Q104.74 0.6 102.02-0.48 99.29-1.55 97.22-3.65 95.14-5.75 93.92-8.88 92.69-12 92.69-16.1L92.69-16.1Q92.69-20.15 93.89-23.33 95.09-26.5 97.19-28.7 99.29-30.9 102.14-32.05 104.99-33.2 108.24-33.2L108.24-33.2Q111.34-33.2 113.84-31.93 116.34-30.65 117.99-29.05L117.99-29.05 113.94-24.5Q112.79-25.55 111.42-26.2 110.04-26.85 108.24-26.85L108.24-26.85Q106.49-26.85 105.04-26.13 103.59-25.4 102.52-24.05 101.44-22.7 100.84-20.75 100.24-18.8 100.24-16.35L100.24-16.35Q100.24-11.3 102.54-8.53 104.84-5.75 108.54-5.75L108.54-5.75Q110.29-5.75 111.77-6.55 113.24-7.35 114.44-8.65L114.44-8.65 118.49-4.2Q114.44 0.6 107.79 0.6ZM130.54 0L123.19 0 123.19-32.6 130.54-32.6 130.54-20.05 139.44-20.05 139.44-32.6 146.79-32.6 146.79 0 139.44 0 139.44-13.6 130.54-13.6 130.54 0ZM197.79 0.6L197.79 0.6Q194.74 0.6 192.01-0.48 189.29-1.55 187.21-3.65 185.14-5.75 183.91-8.88 182.69-12 182.69-16.1L182.69-16.1Q182.69-20.15 183.89-23.33 185.09-26.5 187.19-28.7 189.29-30.9 192.14-32.05 194.99-33.2 198.24-33.2L198.24-33.2Q201.34-33.2 203.84-31.93 206.34-30.65 207.99-29.05L207.99-29.05 203.94-24.5Q202.79-25.55 201.41-26.2 200.04-26.85 198.24-26.85L198.24-26.85Q196.49-26.85 195.04-26.13 193.59-25.4 192.51-24.05 191.44-22.7 190.84-20.75 190.24-18.8 190.24-16.35L190.24-16.35Q190.24-11.3 192.54-8.53 194.84-5.75 198.54-5.75L198.54-5.75Q200.29-5.75 201.76-6.55 203.24-7.35 204.44-8.65L204.44-8.65 208.49-4.2Q204.44 0.6 197.79 0.6ZM220.53 0L213.18 0 213.18-32.6 220.53-32.6 220.53-20.05 229.43-20.05 229.43-32.6 236.78-32.6 236.78 0 229.43 0 229.43-13.6 220.53-13.6 220.53 0ZM252.18-16.5L252.18-16.5 251.43-13.5 258.28-13.5 257.53-16.5Q256.88-18.95 256.18-21.68 255.48-24.4 254.93-27L254.93-27 254.73-27Q254.13-24.4 253.48-21.68 252.83-18.95 252.18-16.5ZM247.93 0L240.43 0 250.58-32.6 259.38-32.6 269.53 0 261.73 0 259.78-7.75 249.93-7.75 247.93 0ZM278.98 0L272.88 0 272.88-32.6 280.58-32.6 283.78-21.05 284.88-16.55 285.08-16.55 286.18-21.05 289.38-32.6 297.08-32.6 297.08 0 290.88 0 290.88-10.1Q290.88-11.45 290.98-13.5 291.08-15.55 291.23-17.7 291.38-19.85 291.55-21.88 291.73-23.9 291.83-25.2L291.83-25.2 291.68-25.2 289.18-16.5 286.68-8.65 283.08-8.65 280.53-16.5 278.18-25.2 278.03-25.2Q278.18-23.9 278.33-21.88 278.48-19.85 278.63-17.7 278.78-15.55 278.88-13.5 278.98-11.45 278.98-10.1L278.98-10.1 278.98 0ZM315.58 0L303.68 0 303.68-32.6 314.63-32.6Q317.18-32.6 319.35-32.23 321.53-31.85 323.13-30.9 324.73-29.95 325.65-28.4 326.58-26.85 326.58-24.5L326.58-24.5Q326.58-23.4 326.25-22.3 325.93-21.2 325.23-20.25 324.53-19.3 323.48-18.55 322.43-17.8 320.98-17.45L320.98-17.45 320.98-17.25Q324.48-16.6 326.28-14.75 328.08-12.9 328.08-9.6L328.08-9.6Q328.08-7.1 327.13-5.3 326.18-3.5 324.48-2.33 322.78-1.15 320.5-0.58 318.23 0 315.58 0L315.58 0ZM311.03-26.85L311.03-19.5 314.28-19.5Q316.98-19.5 318.18-20.55 319.38-21.6 319.38-23.5L319.38-23.5Q319.38-25.3 318.15-26.08 316.93-26.85 314.33-26.85L314.33-26.85 311.03-26.85ZM311.03-14.2L311.03-5.75 314.98-5.75Q320.88-5.75 320.88-10.15L320.88-10.15Q320.88-12.3 319.45-13.25 318.03-14.2 314.98-14.2L314.98-14.2 311.03-14.2ZM356.67 0L334.57 0 334.57-32.6 356.17-32.6 356.17-26.4 341.97-26.4 341.97-19.85 354.02-19.85 354.02-13.7 341.97-13.7 341.97-6.2 356.67-6.2 356.67 0ZM370.82 0L363.47 0 363.47-32.6 375.02-32.6Q377.62-32.6 379.9-32.1 382.17-31.6 383.9-30.43 385.62-29.25 386.62-27.3 387.62-25.35 387.62-22.45L387.62-22.45Q387.62-18.85 386.02-16.53 384.42-14.2 381.82-13.05L381.82-13.05 389.17 0 380.92 0 374.67-11.75 370.82-11.75 370.82 0ZM370.82-26.75L370.82-17.6 374.42-17.6Q380.37-17.6 380.37-22.45L380.37-22.45Q380.37-24.85 378.87-25.8 377.37-26.75 374.42-26.75L374.42-26.75 370.82-26.75Z" opacity="1" transform="matrix(1,0,0,1,0,0)" fill="#fffafe" class="undefined-text-0" id="text-0"></path>
                                                                                </svg>
                                                                            </g>
                                                                        </svg>
                                                                    </g>
                                                                </svg>
                                                            </g>
                                                        </svg>
                                                    </g>
                                                </svg>
                                            </g>
                                        </svg>
                                    </g>
                                </svg>
                            </g>
                            <g>
                                <path d="M244.431 139.367A122.216 122.216 0 1 1 244.431 107.833L242.5 107.833A120.284 120.284 0 1 0 242.5 139.367L244.431 139.367" fill="#fffafe" stroke="transparent"></path>
                            </g>
                        </svg>
                    </g>
                </svg>
                <rect width="395.52" height="247.2" fill="none" stroke="none" visibility="hidden"></rect>
            </g>
        </svg>
    </g>
</svg>
